# xmcd
#
# Track frame offsets:
#	150
#	14162
#	32420
#	53250
#	71570
#	89310
#	106950
#	125775
#	144515
#	164532
#
# Disc length: 2520 seconds
#
# Revision: 2
# Processed by: cddbd v1.5.2PL0 Copyright (c) Steve Scherf et al.
# Submitted via: audiograbber 1.83.01
#
DISCID=8409d60a
DTITLE=John Stewart - Blondes
DYEAR=1982
DGENRE=Folk
TTITLE0=Tall Bondes
TTITLE1=The Queen Of Hollywood High
TTITLE2=Girl Down The River
TTITLE3=The Eyes Of Sweet Virginia
TTITLE4=Judy In G Major
TTITLE5=You Won't Be Going Home
TTITLE6=Jenny Was A Dream Girl
TTITLE7=Blonde Star
TTITLE8=Golden Gate
TTITLE9=Angeles (The City Of Angels)
EXTD=
EXTT0=
EXTT1=
EXTT2=
EXTT3=
EXTT4=
EXTT5=
EXTT6=
EXTT7=
EXTT8=
EXTT9=
PLAYORDER=
